<svg xmlns="http://www.w3.org/2000/svg" version="1.1" xmlns:xlink="http://www.w3.org/1999/xlink" xmlns:svgjs="http://svgjs.com/svgjs" width="100%" height="100%" viewBox="0 0 1000 600"><rect width="1000" height="600" x="0" y="0" fill="#4d2723"/><g><circle r="166.66666666666666" cx="378.73168436686194" cy="400.95392999754347" fill="#fbeaeb" transform="matrix(0.5894417399583362,0,0,0.5894417399583362,0,63.66099823749762)"/><path d="M285.9489482896994 475.9539488956517L342.4965656253181 325.9539534369578L405.08584944468976 325.9539534369578L471.51441886211137 475.9539488956517L390.5025165528723 475.9539488956517L368.00251723406825 426.25156944802893L320.85966151847873 426.25156944802893L301.57394781664664 475.9539488956517L285.9489482896994 475.9539488956517ZM325.59180423235415 413.1563317492541L362.02037455803696 413.1563317492541L342.4965656253181 369.67419020854936L325.59180423235415 413.1563317492541Z " fill="#4d2723" transform="matrix(0.5894417399583362,0,0,0.5894417399583362,0,63.66099823749762)"/><path d="M628.7316783900482 474.89905362358087L684.406612245779 327.2139659220629L746.0299732450435 327.2139659220629L811.4333692271443 474.89905362358087L731.671700829618 474.89905362358087L709.5189376743904 425.96371702407L663.1036243967704 425.96371702407L644.1155416922896 474.89905362358087L628.7316783900482 474.89905362358087ZM667.7627372825922 413.0705744469533L703.6291157243894 413.0705744469533L684.406612245779 370.2594805715728L667.7627372825922 413.0705744469533ZM819.6673989184392 474.89905362358087L819.6673989184392 327.2139659220629L881.6716936756638 327.2139659220629L943.2950546749282 401.05650977282187L943.2950546749282 327.2139659220629L955.9537764779154 327.2139659220629L955.9537764779154 474.89905362358087L906.3737827495486 474.89905362358087L832.5312388987895 376.58884147306645L832.5312388987895 474.89905362358087L819.6673989184392 474.89905362358087ZM1079.1711958796782 380.1637582785397Q1104.2542187115232 386.93265813152595 1116.7078223371473 398.00903970913976Q1129.1614259627713 409.0854212867536 1129.1614259627713 426.78418973352285L1129.1614259627713 426.78418973352285Q1129.1614259627713 440.93734397158494 1120.3120417393866 452.1016333394973Q1111.4333549192356 463.2952253041759 1094.2327306174916 469.6245862056695Q1077.0614089125133 475.9539471071631 1052.564438015992 475.9539471071631L1052.564438015992 475.9539471071631Q1023.672077604544 475.9539471071631 1001.6365248363809 468.4524823350225Q979.5716694714517 460.98032015964816 967.1180658458277 450.2262671464622L967.1180658458277 450.2262671464622L974.0920838761772 440.7322257942218Q985.0512550667263 449.37649184024315 1001.7244326266796 455.50073456437354Q1018.3976101866326 461.59567469173777 1037.5908110684768 461.59567469173777L1037.5908110684768 461.59567469173777Q1050.0444146941009 461.59567469173777 1056.4909859826594 458.0207578862645Q1062.9082546744512 454.4458410807913 1062.9082546744512 447.88205940516826L1062.9082546744512 447.88205940516826Q1062.9082546744512 436.5126518598927 1040.3452551644973 430.183290958399L1040.3452551644973 430.183290958399L1012.9180245913581 422.1543794444673Q990.5601432587671 415.4147821882473 978.4288681975711 403.3714149173496Q966.2975931363749 391.3573502432182 966.2975931363749 374.8892908606283L966.2975931363749 374.8892908606283Q966.2975931363749 361.1756755740588 974.9418591823962 350.0113862061464Q983.5861252284176 338.81779424146794 1000.1420924013062 332.37122295290953Q1016.6980595741945 325.9539542611174 1039.9057162130048 325.9539542611174L1039.9057162130048 325.9539542611174Q1062.0584793682324 325.9539542611174 1080.7535361050514 331.02330350166557Q1099.4192902451045 336.06335014544754 1111.2282367418725 343.2424863531602L1111.2282367418725 343.2424863531602L1104.2542187115232 352.94164588276385Q1094.349941004556 347.25694211012603 1080.519115330922 343.2424863531602Q1066.7175922540541 339.22803059619434 1051.5095445324096 339.22803059619434L1051.5095445324096 339.22803059619434Q1038.235468197333 339.22803059619434 1031.1735423766845 343.3596967402249Q1024.0823139592703 347.4620602874893 1024.0823139592703 354.64119649520194L1024.0823139592703 354.64119649520194Q1024.0823139592703 360.12078209047655 1029.356781377182 364.2524482345071Q1034.6312487950931 368.3548117817715 1049.3997575652452 372.36926753873735L1049.3997575652452 372.36926753873735L1079.1711958796782 380.1637582785397ZM1139.7103607985937 474.89905362358087L1139.7103607985937 327.2139659220629L1293.0801522727497 327.2139659220629L1293.0801522727497 339.667569547687L1213.9631410040793 339.667569547687L1213.9631410040793 394.3169125166018L1252.7890817192601 394.3169125166018L1252.7890817192601 406.97563431958906L1213.9631410040793 406.97563431958906L1213.9631410040793 462.2403318205936L1293.0801522727497 462.2403318205936L1293.0801522727497 474.89905362358087L1139.7103607985937 474.89905362358087ZM1305.1235195436475 474.89905362358087L1305.1235195436475 327.2139659220629L1446.2741281663084 327.2139659220629Q1456.5886422280018 327.2139659220629 1465.350118661088 332.37122295290953Q1474.111595094174 337.5577825805224 1479.2688521250207 346.3192590136085Q1484.4554117526332 355.0514328499284 1484.4554117526332 365.3952495083879L1484.4554117526332 365.3952495083879Q1484.4554117526332 379.1088647949574 1476.0162638839752 390.30245675963596Q1467.5771160153172 401.46674612754833 1454.7132760349664 404.63142657829513L1454.7132760349664 404.63142657829513Q1466.0826835802422 407.79610702904193 1473.3790301750196 416.6747938491927Q1480.6460741730307 425.52417807257734 1480.6460741730307 436.7177700372559L1480.6460741730307 436.7177700372559L1480.6460741730307 474.89905362358087L1409.9682107730187 474.89905362358087L1409.9682107730187 429.1283974748168Q1409.9682107730187 422.35949762183054 1407.4481874511275 418.5794626389941L1407.4481874511275 418.5794626389941Q1404.4886251777439 414.1254679305356 1400.6792875981414 412.01568096337104L1400.6792875981414 412.01568096337104Q1396.4597136638122 409.7007758188433 1391.185246245901 408.64588233526104L1391.185246245901 408.64588233526104Q1385.7056606506262 407.59098885167873 1380.8707321842076 407.3858706743155L1380.8707321842076 407.3858706743155L1375.1567258148034 407.1807524969523L1375.1567258148034 474.89905362358087L1305.1235195436475 474.89905362358087ZM1375.1567258148034 395.1373852260547L1382.5409801998794 394.9322670486915Q1390.1303527623186 394.9322670486915 1396.576924050877 391.2401398561535Q1403.0234953394356 387.54801266361557 1406.7156225319732 381.13074397182345Q1410.4077497245112 374.6841726832651 1410.4077497245112 367.2999182981892L1410.4077497245112 367.2999182981892Q1410.4077497245112 359.7105457357501 1406.7156225319732 353.2639744471918Q1403.0234953394356 346.8467057553996 1396.576924050877 343.037368175797Q1390.1303527623186 339.22803059619434 1382.5409801998794 339.22803059619434L1382.5409801998794 339.22803059619434L1375.1567258148034 339.22803059619434L1375.1567258148034 395.1373852260547Z " fill="#fbeaeb" transform="matrix(0.5894417399583362,0,0,0.5894417399583362,0,63.66099823749762)"/></g></svg>